<svg width="133" height="28" viewBox="0 0 133 28" fill="none" xmlns="http://www.w3.org/2000/svg">
<path d="M98.9323 15.8031C98.9323 19.2591 96.7843 20.9044 93.6963 20.9044C90.6096 20.9044 88.5963 19.2591 88.5963 15.8031V2.00973C88.5963 1.40573 88.4949 1.10306 87.8576 0.901729C87.3536 0.733729 86.5149 0.600396 85.4069 0.600396C84.3003 0.600396 83.4603 0.733729 82.9576 0.901729C82.3203 1.10306 82.2189 1.40573 82.2189 2.00973V16.0044C82.2189 22.9177 86.5483 26.6764 93.6963 26.6764C100.879 26.6764 105.242 22.9177 105.242 16.0044V2.00973C105.242 1.40573 105.14 1.10306 104.503 0.901729C104 0.733729 103.195 0.600396 102.087 0.600396C100.979 0.600396 100.174 0.733729 99.6709 0.901729C99.0336 1.10306 98.9323 1.40573 98.9323 2.00973V15.8031Z" fill="#3CA6AD"/>
<path d="M67.419 26.5424C68.527 26.5424 69.3657 26.4077 69.8684 26.2397C70.507 26.0384 70.607 25.7371 70.607 25.1331V6.64107H77.2524C77.8897 6.64107 78.1244 6.40641 78.2924 5.90241C78.427 5.49974 78.5617 4.76107 78.5617 3.82241C78.5617 2.88241 78.427 2.14374 78.2924 1.74107C78.1244 1.23841 77.8897 1.00241 77.2524 1.00241H57.5857C56.9484 1.00241 56.7137 1.23841 56.5457 1.74107C56.411 2.14374 56.2764 2.88241 56.2764 3.82241C56.2764 4.76107 56.411 5.49974 56.5457 5.90241C56.7137 6.40641 56.9484 6.64107 57.5857 6.64107H64.231V25.1331C64.231 25.7371 64.331 26.0384 64.9697 26.2397C65.4724 26.4077 66.311 26.5424 67.419 26.5424Z" fill="#3CA6AD"/>
<path d="M14.3936 20.9043C10.1656 20.9043 7.14426 17.9176 7.14426 13.5883C7.14426 9.25896 10.1656 6.2723 14.3936 6.2723C18.6229 6.2723 21.6429 9.25896 21.6429 13.5883C21.6429 17.9176 18.6229 20.9043 14.3936 20.9043ZM14.3936 0.498963C6.23893 0.498963 0.498932 6.03763 0.498932 13.5883C0.498932 21.139 6.23893 26.6763 14.3936 26.6763C22.5483 26.6763 28.2883 21.139 28.2883 13.5883C28.2883 6.03763 22.5483 0.498963 14.3936 0.498963Z" fill="#3CA6AD"/>
<path d="M43.8932 13.3532H39.0265V6.43987H43.8932C46.1745 6.43987 47.6185 7.61453 47.6185 9.8972C47.6185 12.1119 46.1745 13.3532 43.8932 13.3532ZM43.9945 1.00254H33.4892C32.9865 1.00254 32.6505 1.3052 32.6505 1.84253V25.1332C32.6505 25.7372 32.7505 26.0385 33.3892 26.2399C33.8919 26.4079 34.7319 26.5425 35.8385 26.5425C36.9465 26.5425 37.7852 26.4079 38.2879 26.2399C38.9265 26.0385 39.0265 25.7372 39.0265 25.1332V18.6892H44.0612C50.6052 18.6892 54.0959 15.1319 54.0959 9.8972C54.0959 4.52653 50.6052 1.00254 43.9945 1.00254" fill="#3CA6AD"/>
<path d="M109.37 23.6897C112.626 25.703 116.854 26.6764 120.612 26.6764C127.191 26.6764 131.855 23.4217 131.855 18.0177C131.855 13.8897 128.868 11.7417 123.298 10.7697L122.156 10.567C117.894 9.82972 116.752 9.29238 116.752 8.11772C116.752 6.74172 118.33 5.96972 121.048 5.96972C123.23 5.96972 125.344 6.44038 127.559 7.44705C128.096 7.68172 128.432 7.71505 128.835 7.31238C129.506 6.64172 130.479 4.92972 130.815 3.72172C130.983 3.11772 130.782 2.74838 130.311 2.51372C127.627 1.17105 124.304 0.499051 120.948 0.499051C114.168 0.499051 110.007 3.52038 109.907 8.52038C109.806 12.9844 112.86 15.2324 118.296 16.071L119.606 16.2724C123.734 16.911 124.908 17.4137 124.908 18.723C124.908 20.2337 123.298 21.1724 120.444 21.1724C117.827 21.1724 115.176 20.3004 112.122 18.6897C111.551 18.387 111.283 18.4204 110.847 18.8577C110.175 19.5284 109.235 21.2737 108.899 22.4817C108.732 23.0857 108.934 23.4217 109.37 23.6897Z" fill="#3CA6AD"/>
<path d="M98.9323 15.8031C98.9323 19.2591 96.7843 20.9044 93.6963 20.9044C90.6096 20.9044 88.5963 19.2591 88.5963 15.8031V2.00973C88.5963 1.40573 88.4949 1.10306 87.8576 0.901729C87.3536 0.733729 86.5149 0.600396 85.4069 0.600396C84.3003 0.600396 83.4603 0.733729 82.9576 0.901729C82.3203 1.10306 82.2189 1.40573 82.2189 2.00973V16.0044C82.2189 22.9177 86.5483 26.6764 93.6963 26.6764C100.879 26.6764 105.242 22.9177 105.242 16.0044V2.00973C105.242 1.40573 105.14 1.10306 104.503 0.901729C104 0.733729 103.195 0.600396 102.087 0.600396C100.979 0.600396 100.174 0.733729 99.6709 0.901729C99.0336 1.10306 98.9323 1.40573 98.9323 2.00973V15.8031Z" fill="#3CA6AD"/>
<path d="M67.419 26.5424C68.527 26.5424 69.3657 26.4077 69.8684 26.2397C70.507 26.0384 70.607 25.7371 70.607 25.1331V6.64107H77.2524C77.8897 6.64107 78.1244 6.40641 78.2924 5.90241C78.427 5.49974 78.5617 4.76107 78.5617 3.82241C78.5617 2.88241 78.427 2.14374 78.2924 1.74107C78.1244 1.23841 77.8897 1.00241 77.2524 1.00241H57.5857C56.9484 1.00241 56.7137 1.23841 56.5457 1.74107C56.411 2.14374 56.2764 2.88241 56.2764 3.82241C56.2764 4.76107 56.411 5.49974 56.5457 5.90241C56.7137 6.40641 56.9484 6.64107 57.5857 6.64107H64.231V25.1331C64.231 25.7371 64.331 26.0384 64.9697 26.2397C65.4724 26.4077 66.311 26.5424 67.419 26.5424Z" fill="#3CA6AD"/>
<path d="M14.3936 20.9043C10.1656 20.9043 7.14426 17.9176 7.14426 13.5883C7.14426 9.25896 10.1656 6.2723 14.3936 6.2723C18.6229 6.2723 21.6429 9.25896 21.6429 13.5883C21.6429 17.9176 18.6229 20.9043 14.3936 20.9043ZM14.3936 0.498963C6.23893 0.498963 0.498932 6.03763 0.498932 13.5883C0.498932 21.139 6.23893 26.6763 14.3936 26.6763C22.5483 26.6763 28.2883 21.139 28.2883 13.5883C28.2883 6.03763 22.5483 0.498963 14.3936 0.498963Z" fill="#3CA6AD"/>
<path d="M43.8932 13.3532H39.0265V6.43987H43.8932C46.1745 6.43987 47.6185 7.61453 47.6185 9.8972C47.6185 12.1119 46.1745 13.3532 43.8932 13.3532ZM43.9945 1.00254H33.4892C32.9865 1.00254 32.6505 1.3052 32.6505 1.84253V25.1332C32.6505 25.7372 32.7505 26.0385 33.3892 26.2399C33.8919 26.4079 34.7319 26.5425 35.8385 26.5425C36.9465 26.5425 37.7852 26.4079 38.2879 26.2399C38.9265 26.0385 39.0265 25.7372 39.0265 25.1332V18.6892H44.0612C50.6052 18.6892 54.0959 15.1319 54.0959 9.8972C54.0959 4.52653 50.6052 1.00254 43.9945 1.00254" fill="#3CA6AD"/>
<path d="M109.37 23.6897C112.626 25.703 116.854 26.6764 120.612 26.6764C127.191 26.6764 131.855 23.4217 131.855 18.0177C131.855 13.8897 128.868 11.7417 123.298 10.7697L122.156 10.567C117.894 9.82972 116.752 9.29238 116.752 8.11772C116.752 6.74172 118.33 5.96972 121.048 5.96972C123.23 5.96972 125.344 6.44038 127.559 7.44705C128.096 7.68172 128.432 7.71505 128.835 7.31238C129.506 6.64172 130.479 4.92972 130.815 3.72172C130.983 3.11772 130.782 2.74838 130.311 2.51372C127.627 1.17105 124.304 0.499051 120.948 0.499051C114.168 0.499051 110.007 3.52038 109.907 8.52038C109.806 12.9844 112.86 15.2324 118.296 16.071L119.606 16.2724C123.734 16.911 124.908 17.4137 124.908 18.723C124.908 20.2337 123.298 21.1724 120.444 21.1724C117.827 21.1724 115.176 20.3004 112.122 18.6897C111.551 18.387 111.283 18.4204 110.847 18.8577C110.175 19.5284 109.235 21.2737 108.899 22.4817C108.732 23.0857 108.934 23.4217 109.37 23.6897Z" fill="#3CA6AD"/>
</svg>
