<svg width="127" height="144" viewBox="0 0 127 144" fill="none" xmlns="http://www.w3.org/2000/svg">
<path d="M102.8 0.899994C106.3 0.699994 109.8 0.799994 113.3 0.799994C117.5 0.799994 121.7 0.799994 125.9 0.799994C124.7 7.29999 123.5 13.9 122.3 20.4C121.8 22.8 120.3 25.2 118.1 26.4C116.5 27.3 114.5 27.5 112.7 27.4C105.4 27.4 98.2 27.4 90.9 27.4C88.8 39.4 86.8 51.5 84.7 63.5C83 73.4 81.3 83.2 79.7 93.1C79.3 95 79.2 97 78.4 98.8C77.6 100.5 76.3 102.1 74.6 102.8C73 103.5 71.2 103.7 69.5 103.6C60.8 103.6 52.1 103.6 43.4 103.6C47.4 83.7 51.5 63.7 55.5 43.8C56.6 38.3 57.7 32.9 58.8 27.4C48.1 27.4 37.3 27.4 26.6 27.4C27.9 20.9 29.1 14.4 30.4 7.89999C30.9 5.79999 32 3.89999 33.7 2.59999C35.3 1.49999 37.2 0.899994 39.2 0.999994C46.9 0.999994 54.6 0.999994 62.2 0.999994C69.5 0.999994 76.8 0.999994 84 0.999994C90.3 0.899994 96.5 0.899994 102.8 0.899994Z" fill="#0058A9"/>
<path d="M21.1 36.2C22.9 36.1 24.6 35.9 26.4 36C36.5 36.4 46.4 39.5 55.4 43.9C51.3 63.8 47.3 83.8 43.3 103.7C52 103.7 60.7 103.7 69.4 103.7C71.1 103.8 72.9 103.6 74.5 102.9C76.2 102.1 77.6 100.6 78.3 98.9C79.1 97.1 79.3 95.1 79.6 93.2C81.3 83.3 83 73.5 84.6 63.6C95.9 73.7 106.1 85.3 113 98.9C115.3 103.4 117.2 108.1 118.4 113C119.3 116.8 119.8 120.8 119.4 124.7C119 128.4 117.8 132 115.7 135.1C114.7 136.8 113 138 111.5 139.1C106.1 142.9 99.3 144.1 92.9 143.6C86.2 143.1 79.7 141.1 73.4 138.8C58.4 133.2 44.6 124.3 32.9 113.4C22.5 103.9 13.3 92.8 7.1 80.1C4.3 74.1 1.9 67.8 1.3 61.2C0.999998 58.1 1.1 55 1.8 52C2.7 48.4 4.4 44.9 7.1 42.4C10.8 38.7 16 36.7 21.1 36.2Z" fill="#00BAF2"/>
</svg>
