<svg id="Capa_1" enable-background="new 0 0 512 512" height="512" viewBox="0 0 512 512" width="512" xmlns="http://www.w3.org/2000/svg"><g><g><path d="m489.5 97.5h-467l-5 277 487-5v-257c0-8.284-6.716-15-15-15z" fill="#edf6ff"/><path d="m126.5 354.5c0-8.284-6.716-15-15-15h-74c-8.284 0-14.999 6.715-15 14.999v-256.999c-8.284 0-15 6.716-15 15v272l247.643 10 249.357-10v-15h-378z" fill="#cde2ff"/><path d="m22.5 384.5-5 20 487-5v-15z" fill="#7e8b96"/><path d="m22.5 392v-7.5h-15v15c0 8.284 6.716 15 15 15h467c8.284 0 15-6.716 15-15h-474.5c-4.142 0-7.5-3.358-7.5-7.5z" fill="#5f6c75"/><path d="m345.558 374.5c.777 0 53.741-5 53.741-5l-10-15c-22.555 0-41.451 0-42.299 0-5.255 7.5-5.584 20-1.442 20z" fill="#7e8b96"/><path d="m350.558 369.5c-4.142 0-5.327-6.501-3.558-15-4.142 0-7.5 6.716-7.5 15s3.358 15 7.5 15h42.299l10-15c-21.137 0-47.964 0-48.741 0z" fill="#5f6c75"/><path d="m467 354.5c-1.279 0-43.66 0-77.701 0v15l36.413 5 48.788-5c0-8.284-3.358-15-7.5-15z" fill="#9ec8fc"/><path d="m389.299 384.5h77.701c4.142 0 7.5-6.716 7.5-15-10.66 0-52.948 0-85.201 0z" fill="#80b6fc"/><path d="m141.5 354.5v-15c0-8.284-6.716-15-15-15h-74l-5 35z" fill="#d8ab8c"/><path d="m52.5 324.5c-8.284 0-15 6.716-15 15v15l15 5z" fill="#c7865b"/><path d="m52.5 354.5-5 20 94-5v-15z" fill="#7e8b96"/><path d="m52.5 362v-7.5h-15v15c0 8.284 6.716 15 15 15h74c8.284 0 15-6.716 15-15h-81.5c-4.142 0-7.5-3.358-7.5-7.5z" fill="#5f6c75"/></g><g><path d="m489.5 422h-467c-12.406 0-22.5-10.093-22.5-22.5v-287c0-12.407 10.094-22.5 22.5-22.5h317c4.143 0 7.5 3.358 7.5 7.5s-3.357 7.5-7.5 7.5h-317c-4.136 0-7.5 3.364-7.5 7.5v264.5h16.285c-.832-2.347-1.285-4.872-1.285-7.5v-30c0-12.407 10.094-22.5 22.5-22.5h74c12.406 0 22.5 10.093 22.5 22.5v30c0 2.628-.453 5.153-1.285 7.5h166.285c4.143 0 7.5 3.358 7.5 7.5s-3.357 7.5-7.5 7.5h-299v7.5c0 4.136 3.364 7.5 7.5 7.5h467c4.136 0 7.5-3.364 7.5-7.5v-7.5h-150c-8.691 0-15-9.462-15-22.5s6.309-22.5 15-22.5h120c8.691 0 15 9.462 15 22.5 0 2.667-.264 5.183-.758 7.5h15.758v-264.5c0-4.136-3.364-7.5-7.5-7.5h-120c-4.143 0-7.5-3.358-7.5-7.5s3.357-7.5 7.5-7.5h120c12.406 0 22.5 10.093 22.5 22.5v287c0 12.407-10.094 22.5-22.5 22.5zm-92.701-45h68.679c.658-1.192 1.522-3.786 1.522-7.5s-.864-6.308-1.522-7.5h-68.679zm-48.277 0h33.276v-15h-33.276c-.658 1.192-1.522 3.786-1.522 7.5s.864 6.308 1.522 7.5zm-296.022 0h74c4.136 0 7.5-3.364 7.5-7.5v-7.5h-89v7.5c0 4.136 3.364 7.5 7.5 7.5zm414.5-15h.01zm-422-15h89v-7.5c0-4.136-3.364-7.5-7.5-7.5h-74c-4.136 0-7.5 3.364-7.5 7.5z"/></g></g></svg>